<svg width="669" height="153" viewBox="0 0 669 153" fill="none" xmlns="http://www.w3.org/2000/svg">
<path d="M11 11H91.7187" stroke="#706962" stroke-width="20.1797" stroke-linecap="round"/>
<path d="M11 141.588H91.7187" stroke="#706962" stroke-width="20.1797" stroke-linecap="round"/>
<path d="M11 75.8035H91.7187" stroke="#706962" stroke-width="20.1797" stroke-linecap="round"/>
<path d="M11 75.8035L11 11.0003" stroke="#706962" stroke-width="20.1797" stroke-linecap="round"/>
<path d="M91.7188 141.588V75.8031" stroke="#706962" stroke-width="20.1797" stroke-linecap="round"/>
<path d="M123.493 11H204.212" stroke="#706962" stroke-width="20.1797" stroke-linecap="round"/>
<path d="M123.493 141.588H204.212" stroke="#706962" stroke-width="20.1797" stroke-linecap="round"/>
<path d="M123.493 75.8035H204.212" stroke="#706962" stroke-width="20.1797" stroke-linecap="round"/>
<path d="M235.986 11.0391H316.705" stroke="#706962" stroke-width="20.1797" stroke-linecap="round"/>
<path d="M237.771 75.8032L316.705 75.8425" stroke="#706962" stroke-width="20.1797" stroke-linecap="round"/>
<path d="M241.807 82.676L320.508 141.588" stroke="#706962" stroke-width="20.1797" stroke-linecap="round"/>
<path d="M316.741 75.8032V11" stroke="#706962" stroke-width="20.1797" stroke-linecap="round"/>
<path d="M236.762 141.588L235.986 11.0395" stroke="#706962" stroke-width="20.1797" stroke-linecap="round"/>
<path d="M352.282 11H433.001" stroke="#706962" stroke-width="20.1797" stroke-linecap="round"/>
<path d="M352.282 141.588H433.001" stroke="#706962" stroke-width="20.1797" stroke-linecap="round"/>
<path d="M352.282 75.7163H433.001" stroke="#706962" stroke-width="20.1797" stroke-linecap="round"/>
<path d="M464.775 141.588L464.775 10.9999" stroke="#706962" stroke-width="20.1797" stroke-linecap="round"/>
<path d="M545.494 141.588V10.9999" stroke="#706962" stroke-width="20.1797" stroke-linecap="round"/>
<path d="M465.784 12.1555L544.485 141.588" stroke="#706962" stroke-width="20.1797" stroke-linecap="round"/>
<path d="M577.281 11H658" stroke="#706962" stroke-width="20.1797" stroke-linecap="round"/>
<path d="M577.269 141.588V10.9999" stroke="#706962" stroke-width="20.1797" stroke-linecap="round"/>
<path d="M658 141.588V10.9999" stroke="#706962" stroke-width="20.1797" stroke-linecap="round"/>
<path d="M577.281 75.7163H658" stroke="#706962" stroke-width="20.1797" stroke-linecap="round"/>
</svg>
