<svg width="669" height="153" viewBox="0 0 669 153" fill="none" xmlns="http://www.w3.org/2000/svg">
<path d="M11 11.1765H91.7187" stroke="black" stroke-width="20.1797" stroke-linecap="round"/>
<path d="M11 141.765H91.7187" stroke="black" stroke-width="20.1797" stroke-linecap="round"/>
<path d="M11 75.98H91.7187" stroke="black" stroke-width="20.1797" stroke-linecap="round"/>
<path d="M11 75.98L11 11.1768" stroke="black" stroke-width="20.1797" stroke-linecap="round"/>
<path d="M91.7188 141.765V75.9796" stroke="black" stroke-width="20.1797" stroke-linecap="round"/>
<path d="M123.493 11.1765H204.212" stroke="black" stroke-width="20.1797" stroke-linecap="round"/>
<path d="M123.493 141.765H204.212" stroke="black" stroke-width="20.1797" stroke-linecap="round"/>
<path d="M123.493 75.98H204.212" stroke="black" stroke-width="20.1797" stroke-linecap="round"/>
<path d="M235.986 11.2156H316.705" stroke="black" stroke-width="20.1797" stroke-linecap="round"/>
<path d="M237.771 75.9797L316.705 76.019" stroke="black" stroke-width="20.1797" stroke-linecap="round"/>
<path d="M241.807 82.8525L320.508 141.765" stroke="black" stroke-width="20.1797" stroke-linecap="round"/>
<path d="M316.741 75.9797V11.1766" stroke="black" stroke-width="20.1797" stroke-linecap="round"/>
<path d="M236.762 141.765L235.986 11.216" stroke="black" stroke-width="20.1797" stroke-linecap="round"/>
<path d="M352.282 11.1765H433.001" stroke="black" stroke-width="20.1797" stroke-linecap="round"/>
<path d="M352.282 141.765H433.001" stroke="black" stroke-width="20.1797" stroke-linecap="round"/>
<path d="M352.282 75.8928H433.001" stroke="black" stroke-width="20.1797" stroke-linecap="round"/>
<path d="M464.775 141.765L464.775 11.1764" stroke="black" stroke-width="20.1797" stroke-linecap="round"/>
<path d="M545.494 141.765V11.1764" stroke="black" stroke-width="20.1797" stroke-linecap="round"/>
<path d="M465.784 12.332L544.485 141.765" stroke="black" stroke-width="20.1797" stroke-linecap="round"/>
<path d="M577.281 11.1765H658" stroke="black" stroke-width="20.1797" stroke-linecap="round"/>
<path d="M577.269 141.765V11.1764" stroke="black" stroke-width="20.1797" stroke-linecap="round"/>
<path d="M658 141.765V11.1764" stroke="black" stroke-width="20.1797" stroke-linecap="round"/>
<path d="M577.281 75.8928H658" stroke="black" stroke-width="20.1797" stroke-linecap="round"/>
</svg>
